<mxfile host="app.diagrams.net" modified="2023-08-23T18:03:46.564Z" agent="Mozilla/5.0 (Windows NT 10.0; Win64; x64) AppleWebKit/537.36 (KHTML, like Gecko) Chrome/116.0.0.0 Safari/537.36 Edg/116.0.1938.54" etag="Eda0m_wSCsZfwzw5Swab" version="21.6.9" type="device">
  <diagram name="PÃ¡gina-1" id="8lWj_Coex7peONT_sQL4">
    <mxGraphModel dx="1386" dy="747" grid="1" gridSize="10" guides="1" tooltips="1" connect="1" arrows="1" fold="1" page="1" pageScale="1" pageWidth="827" pageHeight="1169" math="0" shadow="0">
      <root>
        <mxCell id="0" />
        <mxCell id="1" parent="0" />
        <mxCell id="3FvPR-re-uFYRb1lgZB7-1" value="Look Beyond Deployment" style="shape=umlFrame;whiteSpace=wrap;html=1;pointerEvents=0;width=200;height=40;" vertex="1" parent="1">
          <mxGeometry x="59" y="220" width="710" height="330" as="geometry" />
        </mxCell>
        <mxCell id="3FvPR-re-uFYRb1lgZB7-2" value="&amp;lt;&amp;lt;Execution environment&amp;gt;&amp;gt;" style="verticalAlign=top;align=center;spacingTop=8;spacingLeft=2;spacingRight=12;shape=cube;size=10;direction=south;fontStyle=4;html=1;whiteSpace=wrap;" vertex="1" parent="1">
          <mxGeometry x="109" y="325" width="180" height="120" as="geometry" />
        </mxCell>
        <mxCell id="3FvPR-re-uFYRb1lgZB7-3" value="Cliente Navegador" style="text;html=1;strokeColor=none;fillColor=none;align=center;verticalAlign=middle;whiteSpace=wrap;rounded=0;" vertex="1" parent="1">
          <mxGeometry x="169" y="370" width="60" height="30" as="geometry" />
        </mxCell>
        <mxCell id="3FvPR-re-uFYRb1lgZB7-4" value="&amp;lt;&amp;lt;Execution environment&amp;gt;&amp;gt;" style="verticalAlign=top;align=center;spacingTop=8;spacingLeft=2;spacingRight=12;shape=cube;size=10;direction=south;fontStyle=4;html=1;whiteSpace=wrap;" vertex="1" parent="1">
          <mxGeometry x="509" y="325" width="180" height="120" as="geometry" />
        </mxCell>
        <mxCell id="3FvPR-re-uFYRb1lgZB7-5" value="FrontEnd: JS, HTML, CSS" style="text;html=1;strokeColor=none;fillColor=none;align=center;verticalAlign=middle;whiteSpace=wrap;rounded=0;" vertex="1" parent="1">
          <mxGeometry x="519" y="360" width="150" height="30" as="geometry" />
        </mxCell>
        <mxCell id="3FvPR-re-uFYRb1lgZB7-6" value="BackEnd: Python (Flask)" style="text;html=1;strokeColor=none;fillColor=none;align=center;verticalAlign=middle;whiteSpace=wrap;rounded=0;" vertex="1" parent="1">
          <mxGeometry x="519" y="380" width="150" height="30" as="geometry" />
        </mxCell>
        <mxCell id="3FvPR-re-uFYRb1lgZB7-7" value="DataBase: MySQL" style="text;html=1;strokeColor=none;fillColor=none;align=center;verticalAlign=middle;whiteSpace=wrap;rounded=0;" vertex="1" parent="1">
          <mxGeometry x="519" y="400" width="150" height="30" as="geometry" />
        </mxCell>
        <mxCell id="3FvPR-re-uFYRb1lgZB7-8" value="" style="endArrow=none;html=1;rounded=0;exitX=0;exitY=0;exitDx=55;exitDy=0;exitPerimeter=0;entryX=0.458;entryY=0.994;entryDx=0;entryDy=0;entryPerimeter=0;" edge="1" parent="1" source="3FvPR-re-uFYRb1lgZB7-2" target="3FvPR-re-uFYRb1lgZB7-4">
          <mxGeometry width="50" height="50" relative="1" as="geometry">
            <mxPoint x="390" y="410" as="sourcePoint" />
            <mxPoint x="440" y="360" as="targetPoint" />
          </mxGeometry>
        </mxCell>
        <mxCell id="3FvPR-re-uFYRb1lgZB7-9" value="HTTP" style="text;html=1;strokeColor=none;fillColor=none;align=center;verticalAlign=middle;whiteSpace=wrap;rounded=0;" vertex="1" parent="1">
          <mxGeometry x="384" y="380" width="60" height="30" as="geometry" />
        </mxCell>
      </root>
    </mxGraphModel>
  </diagram>
</mxfile>
